<?xml version="1.0" standalone="no"?>
<!DOCTYPE svg PUBLIC "-//W3C//DTD SVG 20010904//EN"
 "http://www.w3.org/TR/2001/REC-SVG-20010904/DTD/svg10.dtd">
<svg version="1.0" xmlns="http://www.w3.org/2000/svg"
 width="1920.000000pt" height="1920.000000pt" viewBox="0 0 1920.000000 1920.000000"
 preserveAspectRatio="xMidYMid meet">
<metadata>
Created by potrace 1.16, written by Peter Selinger 2001-2019
</metadata>
<g transform="translate(0.000000,1920.000000) scale(0.100000,-0.100000)"
fill="#000000" stroke="none">
<path d="M9230 15674 c-1120 -77 -2190 -475 -3080 -1145 -1134 -854 -1910
-2088 -2185 -3473 -132 -666 -145 -1327 -40 -2006 63 -410 184 -853 340 -1245
140 -352 357 -758 586 -1095 136 -200 166 -232 65 -70 -130 211 -192 320 -290
520 -147 297 -242 538 -336 845 -391 1285 -295 2699 264 3915 284 616 638
1123 1125 1611 461 461 916 786 1496 1070 598 292 1198 462 1895 536 126 13
251 17 530 17 279 0 404 -4 530 -17 1034 -110 1948 -461 2765 -1061 310 -228
719 -613 963 -908 651 -784 1065 -1696 1221 -2688 139 -875 63 -1791 -216
-2620 -149 -445 -317 -797 -579 -1220 -101 -162 -71 -130 65 70 486 715 802
1519 930 2365 109 722 83 1418 -80 2155 -151 678 -471 1396 -887 1990 -477
681 -1063 1226 -1787 1663 -313 188 -799 407 -1168 526 -338 109 -799 206
-1167 247 -138 15 -815 28 -960 18z"/>
<path d="M6550 12910 l0 -640 3050 0 3050 0 0 640 0 640 -3050 0 -3050 0 0
-640z m1723 370 c29 -11 68 -35 86 -54 33 -34 76 -135 63 -147 -4 -4 -55 -9
-114 -13 l-107 -7 -7 25 c-16 63 -115 95 -163 52 -46 -42 -17 -66 117 -100
178 -45 242 -82 279 -161 52 -113 7 -247 -104 -307 -90 -48 -217 -61 -346 -33
-86 18 -127 43 -165 101 -29 42 -60 139 -49 150 3 3 54 8 114 11 l109 6 12
-41 c20 -66 87 -100 158 -80 22 6 39 19 49 38 23 45 4 75 -62 100 -30 11 -59
20 -66 20 -31 0 -170 54 -207 81 -103 75 -107 231 -8 314 18 16 48 34 65 42
88 36 252 38 346 3z m1457 20 c141 -23 245 -103 287 -222 28 -81 24 -263 -7
-342 -67 -173 -253 -250 -485 -201 -116 25 -202 99 -246 213 -29 76 -32 232
-6 312 60 181 237 274 457 240z m-512 -102 l3 -97 -118 -3 -118 -3 -2 -280 -2
-280 -118 0 -118 0 -3 283 -2 282 -115 0 -115 0 0 93 c0 52 3 97 7 100 4 4
162 6 352 5 l346 -3 3 -97z m1400 92 c120 -11 169 -38 206 -112 28 -56 32 -96
15 -162 -12 -50 -67 -112 -119 -134 -34 -14 -34 -14 -12 -26 12 -7 35 -27 50
-46 37 -46 154 -265 145 -273 -3 -4 -64 -7 -134 -7 l-127 0 -75 138 c-55 101
-82 142 -106 156 -57 33 -61 24 -61 -144 l0 -151 -117 3 -118 3 -3 370 c-1
203 0 376 3 382 5 16 307 18 453 3z m980 2 c9 -6 12 -31 10 -88 l-3 -79 -198
-3 -198 -2 3 -53 3 -52 183 -3 182 -2 0 -80 0 -80 -185 0 -186 0 3 -67 3 -68
203 -3 203 -2 -3 -88 -3 -87 -320 0 -320 0 -3 374 c-2 289 1 376 10 382 17 11
600 11 616 1z"/>
<path d="M9569 13097 c-58 -38 -71 -76 -67 -198 3 -97 5 -109 30 -142 51 -66
159 -75 217 -16 54 54 67 222 24 305 -37 71 -137 96 -204 51z"/>
<path d="M10400 13060 l0 -70 64 0 c99 0 146 24 146 75 0 9 -11 27 -25 40 -22
22 -32 25 -105 25 l-80 0 0 -70z"/>
<path d="M6585 12120 c-316 -35 -588 -226 -732 -515 -25 -49 -273 -758 -273
-779 0 -3 1809 -6 4020 -6 2211 0 4020 3 4020 6 0 21 -248 730 -273 779 -126
253 -335 420 -622 498 l-80 22 -2995 1 c-1647 1 -3026 -2 -3065 -6z"/>
<path d="M3907 11796 c-207 -533 -343 -1140 -387 -1726 -16 -218 -14 -742 5
-965 63 -770 270 -1512 616 -2205 399 -800 949 -1482 1649 -2046 957 -771
2158 -1240 3388 -1324 197 -13 647 -13 844 0 1010 69 2005 398 2866 948 671
429 1275 1014 1737 1681 353 512 671 1181 828 1746 48 171 56 201 91 350 105
452 148 847 147 1366 -1 409 -23 685 -82 1027 -72 419 -235 986 -359 1252 -25
54 -24 52 33 -130 95 -301 157 -554 202 -820 130 -774 107 -1606 -65 -2350
-165 -714 -446 -1364 -853 -1975 -230 -346 -451 -612 -766 -925 -934 -929
-2121 -1510 -3436 -1684 -456 -61 -1074 -61 -1530 0 -1242 164 -2382 698
-3290 1541 -422 392 -783 836 -1072 1318 -680 1135 -959 2467 -797 3805 44
364 126 729 253 1130 22 68 39 126 37 127 -2 2 -28 -61 -59 -141z"/>
<path d="M5840 10343 c0 -408 5 -453 53 -535 33 -57 96 -114 156 -142 71 -32
216 -30 291 5 30 14 75 46 99 70 24 24 56 69 70 99 l26 55 3 413 3 412 -351 0
-350 0 0 -377z"/>
<path d="M7552 10303 l3 -418 34 -63 c36 -67 85 -114 161 -153 39 -21 59 -24
145 -24 86 0 107 4 150 25 73 36 147 114 176 185 23 59 24 65 27 463 l3 402
-351 0 -351 0 3 -417z"/>
<path d="M9252 10308 l3 -413 28 -57 c36 -73 119 -150 192 -177 124 -46 262
-19 360 70 32 30 65 73 82 107 l28 57 3 413 3 412 -351 0 -351 0 3 -412z"/>
<path d="M10952 10318 c3 -398 4 -404 27 -463 29 -71 103 -149 176 -185 43
-21 64 -25 150 -25 86 0 106 3 145 24 76 39 125 86 161 153 l34 63 3 418 3
417 -351 0 -351 0 3 -402z"/>
<path d="M12662 10308 l3 -413 26 -55 c33 -70 99 -136 169 -169 75 -35 220
-37 291 -5 60 28 123 85 156 142 48 82 53 127 53 535 l0 377 -350 0 -351 0 3
-412z"/>
<path d="M6565 9636 c-83 -87 -197 -146 -314 -162 l-51 -7 0 -1818 0 -1819
1235 0 1235 0 0 1435 0 1435 930 0 930 0 0 -1435 0 -1435 1235 0 1235 0 2
1820 3 1820 -25 0 c-98 0 -249 71 -336 157 l-63 62 -63 -62 c-212 -207 -514
-207 -725 -1 l-63 62 -63 -62 c-211 -206 -516 -206 -726 1 l-63 63 -57 -57
c-211 -212 -516 -215 -729 -8 l-65 64 -72 -68 c-76 -72 -145 -111 -241 -136
-163 -42 -333 7 -469 136 l-72 68 -65 -64 c-137 -133 -311 -182 -486 -136 -92
24 -170 70 -243 144 l-57 57 -63 -63 c-210 -207 -515 -207 -727 0 l-62 61 -58
-57 c-211 -211 -517 -212 -731 -3 -35 34 -64 62 -65 61 0 0 -23 -24 -51 -53z
m1775 -2215 c0 -928 -1 -1009 -16 -1015 -21 -8 -1659 -7 -1680 1 -12 4 -14
145 -14 1014 l0 1009 855 0 855 0 0 -1009z"/>
<path d="M7088 8169 c-11 -6 -18 -22 -18 -40 0 -26 35 -64 263 -287 144 -141
341 -334 438 -429 131 -129 182 -173 200 -173 32 0 49 17 49 50 0 21 -47 73
-237 260 -131 129 -328 323 -439 432 -122 120 -209 198 -220 198 -10 0 -27 -5
-36 -11z"/>
<path d="M7006 7744 c-9 -8 -16 -24 -16 -35 0 -24 855 -869 894 -883 26 -9 66
19 66 47 0 17 -59 82 -217 237 -120 118 -318 312 -439 432 -231 227 -250 241
-288 202z"/>
<path d="M8933 7472 l-103 -3 0 -294 0 -295 125 0 125 0 0 299 0 300 -22 -2
c-12 -1 -68 -3 -125 -5z m82 -257 c14 -13 25 -30 25 -37 -1 -36 -59 -73 -98
-63 -63 16 -81 68 -36 104 36 28 79 27 109 -4z"/>
</g>
</svg>
